<svg xmlns="http://www.w3.org/2000/svg" viewBox="0 0 147.11915 47.7002"><defs><style>.b52f2c17-5145-44de-8ac4-ecdc5e09f9e7{fill:#002fd8;}.e1cb4c4d-94ff-4ce7-a29c-9ae639280b9d{fill:#014bff;}.b7b6f947-9f33-45d5-b45d-6af7fee0ae21{fill:#34353a;}</style></defs><g id="b051fd43-8c88-4fe8-8cf6-c8f3bde14cb5" data-name="Layer 2"><g id="bbcf5f8e-b588-4744-bc7e-b35dc26dd274" data-name="Layer 1"><path class="b52f2c17-5145-44de-8ac4-ecdc5e09f9e7" d="M20.092,23.86421A10.22776,10.22776,0,0,0,30.31982,13.63643v-.36474A10.22776,10.22776,0,0,0,20.092,3.04391H10.98141l-.01711.04292a43.7414,43.7414,0,0,1-8.282,20.77738h6.2843L0,44.6846H20.092A10.22782,10.22782,0,0,0,30.31982,34.45682V34.092A10.28269,10.28269,0,0,0,19.84929,23.86421H20.092Z"/><path class="e1cb4c4d-94ff-4ce7-a29c-9ae639280b9d" d="M8.9741,23.86419h11.118A10.22771,10.22771,0,0,0,30.31984,13.63641v-.36472A10.2277,10.2277,0,0,0,20.09206,3.04392H10.9814l-.0171.04285a43.74114,43.74114,0,0,1-8.282,20.77742H8.9741Z"/><path class="b7b6f947-9f33-45d5-b45d-6af7fee0ae21" d="M57.71363,21.71973,62.23609.32129H74.6482l-.55371,2.60254a2.4087,2.4087,0,0,1-2.3457,1.89941H66.531l-.73828,3.541h6.67676l-.56641,2.61035a2.41221,2.41221,0,0,1-2.34472,1.8916H64.824l-.918,4.32422h7.16016l-.55371,2.625a2.40787,2.40787,0,0,1-2.34668,1.9043Z"/><path class="b7b6f947-9f33-45d5-b45d-6af7fee0ae21" d="M77.27149,21.71973l1.76269-8.28223L75.60645.32129H80.9668l1.63867,7.52246L87.3584.32129h5.94434l-8.292,12.11621a7.20037,7.20037,0,0,0-1.10352,2.57617l-1.02344,4.80664a2.4114,2.4114,0,0,1-2.34668,1.89942Z"/><path class="b7b6f947-9f33-45d5-b45d-6af7fee0ae21" d="M98.0586,22a7.92043,7.92043,0,0,1-5.92774-2.207,8.35528,8.35528,0,0,1-2.1416-6.05859A17.13,17.13,0,0,1,91.415,6.72266a11.5737,11.5737,0,0,1,3.98438-4.97559A10.228,10.228,0,0,1,101.28907,0a7.83911,7.83911,0,0,1,5.86621,2.15723A8.24374,8.24374,0,0,1,109.24707,8.125a17.854,17.854,0,0,1-1.42578,7.27734,11.154,11.154,0,0,1-3.96093,4.92383A10.31333,10.31333,0,0,1,98.0586,22Zm2.88183-17.44238a4.03723,4.03723,0,0,0-2.78711,1.15722A8.09414,8.09414,0,0,0,96.06446,9.041a13.84187,13.84187,0,0,0-.77637,4.69336,4.12811,4.12811,0,0,0,.81152,2.791,2.84373,2.84373,0,0,0,2.26661.88867,4.08153,4.08153,0,0,0,2.77148-1.09961,7.54913,7.54913,0,0,0,2.041-3.24121,14.57625,14.57625,0,0,0,.75585-4.83594,4.22516,4.22516,0,0,0-.79785-2.76562A2.68519,2.68519,0,0,0,100.94043,4.55762Z"/><path class="b7b6f947-9f33-45d5-b45d-6af7fee0ae21" d="M120.93555,21.71973,116.418,7.68457c-.2334,1.4707-.47168,2.82031-.71386,4.03027l-1.708,8.10059a2.40787,2.40787,0,0,1-2.34668,1.9043H108.7793L113.30079.32129h5.72656l4.31055,13.65234q.104-.56689.23242-1.2373c.252-1.31445,1.07617-5.25293,2.5205-12.03906l.08008-.376h4.80078l-4.12011,19.49512a2.41026,2.41026,0,0,1-2.34668,1.90332Z"/><path class="b7b6f947-9f33-45d5-b45d-6af7fee0ae21" d="M128.2959,21.71973,132.81836.32129h5.92383a8.53064,8.53064,0,0,1,6.16895,2.13379,8.10814,8.10814,0,0,1,2.208,6.07617,16.27625,16.27625,0,0,1-1.416,7.00781,10.30824,10.30824,0,0,1-4.15625,4.60547,12.45976,12.45976,0,0,1-6.35742,1.5752Zm7.08887-4.5293a5.75311,5.75311,0,0,0,3.33984-.97949,6.5085,6.5085,0,0,0,2.23731-2.919,11.67949,11.67949,0,0,0,.83008-4.53711,4.324,4.324,0,0,0-.8916-2.96289,3.25069,3.25069,0,0,0-2.56446-.96875h-1.22363l-2.624,12.36719Z"/><path class="b7b6f947-9f33-45d5-b45d-6af7fee0ae21" d="M40.7605,21.71973,45.283.32129h6.34375a8.951,8.951,0,0,1,5.11036,1.22559A4.34294,4.34294,0,0,1,58.57691,5.3418,5.63986,5.63986,0,0,1,57.3025,9.11133a5.7013,5.7013,0,0,1-2.3252,1.60644,4.3978,4.3978,0,0,1,1.25586,1.02539,4.2524,4.2524,0,0,1,.94434,2.83008,6.46758,6.46758,0,0,1-2.31543,5.30567,9.63348,9.63348,0,0,1-6.21485,1.84082Zm8.124-4.5293a3.33912,3.33912,0,0,0,2.25586-.69434,2.36412,2.36412,0,0,0,.7666-1.89453c0-.834-.23731-1.791-2.085-1.791H47.89722l-.94238,4.37988Zm1.42676-8.77051a3.581,3.581,0,0,0,2.24121-.57324,1.88965,1.88965,0,0,0,.66894-1.582c0-.6709-.21582-1.44141-1.90234-1.44141H49.57691l-.76367,3.59668Z"/><path class="b7b6f947-9f33-45d5-b45d-6af7fee0ae21" d="M46.53449,47.40723l-.35156-5.09375H40.02668l-1.50489,3.0459a3.65563,3.65563,0,0,1-3.29687,2.04785H31.70441L43.431,24.93164h6.207l2.25,22.47559Zm-.64258-9.88672-.33984-4.59375c-.04785-.61914-.084-1.23242-.1084-1.83594q-.32812.73974-.69824,1.50391l-2.4043,4.92578Z"/><path class="b7b6f947-9f33-45d5-b45d-6af7fee0ae21" d="M52.65851,47.40723l4.73243-22.3877h5.34765a8.52321,8.52321,0,0,1,5.67871,1.67774A6.3269,6.3269,0,0,1,70.40461,31.749a7.25029,7.25029,0,0,1-2.66309,5.92481,11.0921,11.0921,0,0,1-7.15527,2.12207H59.7298l-.9834,4.68848a3.69291,3.69291,0,0,1-3.59961,2.92285Zm8.29493-12.31739a4.45374,4.45374,0,0,0,2.95214-.89257,2.872,2.872,0,0,0,1.01758-2.33106c0-1.48047-.72754-2.14062-2.36035-2.14062h-.68262L60.7425,35.08984Z"/><path class="b7b6f947-9f33-45d5-b45d-6af7fee0ae21" d="M68.848,47.40723l4.73242-22.3877H78.928a8.52429,8.52429,0,0,1,5.67969,1.67774A6.32418,6.32418,0,0,1,86.595,31.749,7.25029,7.25029,0,0,1,83.932,37.67383a11.0921,11.0921,0,0,1-7.15527,2.12207h-.85742l-.98243,4.68848a3.69453,3.69453,0,0,1-3.59961,2.92285Zm8.29492-12.31739a4.45021,4.45021,0,0,0,2.95215-.89257,2.8712,2.8712,0,0,0,1.01855-2.33106c0-1.48047-.72754-2.14062-2.36035-2.14062h-.68262l-1.13769,5.36425Z"/><path class="b7b6f947-9f33-45d5-b45d-6af7fee0ae21" d="M90.93407,47.7002a9.76559,9.76559,0,0,1-5.48437-1.4004L85.23,46.15332V41.03516l.73535.41211a10.41558,10.41558,0,0,0,4.999,1.51757,4.09532,4.09532,0,0,0,2.28516-.53711,1.45535,1.45535,0,0,0,.7041-1.29589,2.39836,2.39836,0,0,0-.16015-.917,2.653,2.653,0,0,0-.47559-.74511A14.16416,14.16416,0,0,0,91.57567,38.044a10.28183,10.28183,0,0,1-2.9707-3.01758,6.52074,6.52074,0,0,1-.88672-3.30664,6.86417,6.86417,0,0,1,.97949-3.63184,6.64681,6.64681,0,0,1,2.78711-2.49707,9.13786,9.13786,0,0,1,4.0752-.87891,12.4024,12.4024,0,0,1,6.04882,1.51075l.40528.22265-.57227,1.22364a3.67116,3.67116,0,0,1-3.30078,2.126,3.54705,3.54705,0,0,1-.82324-.09765,7.55165,7.55165,0,0,0-1.75781-.22071,2.47067,2.47067,0,0,0-1.67188.542,1.68531,1.68531,0,0,0-.60058,1.36524,2.086,2.086,0,0,0,.38867,1.26855A8.14806,8.14806,0,0,0,95.71239,34.292,9.19942,9.19942,0,0,1,98.5122,37.0293a6.6318,6.6318,0,0,1,.95214,3.56152,6.42514,6.42514,0,0,1-2.34668,5.21875A9.4943,9.4943,0,0,1,90.93407,47.7002Z"/><path class="b7b6f947-9f33-45d5-b45d-6af7fee0ae21" d="M111.13493,39.62092h3.492V44.1847a9.804,9.804,0,0,1-1.59865.38853,10.437,10.437,0,0,1-1.53269.11137,3.87583,3.87583,0,0,1-3.04309-1.17114,4.86955,4.86955,0,0,1-1.0512-3.36265,4.43474,4.43474,0,0,1,1.22-3.32367,4.62888,4.62888,0,0,1,3.38064-1.19214,6.54329,6.54329,0,0,1,2.613.54188l-.62027,1.49328a4.4288,4.4288,0,0,0-2.00474-.48191,2.47613,2.47613,0,0,0-1.93877.813,3.153,3.153,0,0,0-.72907,2.18551,3.50963,3.50963,0,0,0,.58771,2.18894,2.02889,2.02889,0,0,0,1.7066.75563,6.04675,6.04675,0,0,0,1.18571-.12037V41.17417h-1.66719Z"/><path class="b7b6f947-9f33-45d5-b45d-6af7fee0ae21" d="M117.84909,41.18659v3.37764h-1.8668V35.76137h2.565a4.38853,4.38853,0,0,1,2.655.65325,2.60443,2.60443,0,0,1,.4335,3.36565,2.823,2.823,0,0,1-1.20969.9484q1.98675,2.96856,2.589,3.83556h-2.07156L118.842,41.18659Zm0-1.51769h.60228a2.30561,2.30561,0,0,0,1.30651-.29471,1.05325,1.05325,0,0,0,.42151-.92741.96343.96343,0,0,0-.43093-.891,2.61423,2.61423,0,0,0-1.33393-.26515h-.56544Z"/><path class="b7b6f947-9f33-45d5-b45d-6af7fee0ae21" d="M131.37252,40.15081a4.774,4.774,0,0,1-1.08376,3.35965,4.69772,4.69772,0,0,1-6.21384,0,4.79642,4.79642,0,0,1-1.08375-3.37165,4.72911,4.72911,0,0,1,1.08718-3.35665,4.06428,4.06428,0,0,1,3.11591-1.15915,4.007,4.007,0,0,1,3.10392,1.16815A4.78983,4.78983,0,0,1,131.37252,40.15081Zm-6.42459,0a3.67577,3.67577,0,0,0,.5603,2.22192,1.95967,1.95967,0,0,0,1.674.74663q2.23348,0,2.23349-2.96855,0-2.97435-2.2215-2.97456a1.973,1.973,0,0,0-1.68.74964A3.66459,3.66459,0,0,0,124.94793,40.15081Z"/><path class="b7b6f947-9f33-45d5-b45d-6af7fee0ae21" d="M139.62279,35.76137v5.69594a3.28131,3.28131,0,0,1-.43693,1.71,2.84556,2.84556,0,0,1-1.2611,1.12574,4.50591,4.50591,0,0,1-1.95077.39152,3.73625,3.73625,0,0,1-2.63786-.87,3.08584,3.08584,0,0,1-.939-2.38127v-5.672H134.258v5.38881a2.25985,2.25985,0,0,0,.40866,1.49327,1.704,1.704,0,0,0,1.35534.47591,1.6631,1.6631,0,0,0,1.32707-.47891,2.26873,2.26873,0,0,0,.41294-1.50227V35.76137Z"/><path class="b7b6f947-9f33-45d5-b45d-6af7fee0ae21" d="M147.11915,38.50718a2.69032,2.69032,0,0,1-.88757,2.17351,3.799,3.799,0,0,1-2.52563.75264h-.801v3.1309H141.0381V35.76137h2.81178a3.74177,3.74177,0,0,1,2.43567.68924A2.51482,2.51482,0,0,1,147.11915,38.50718Zm-4.21424,1.39689h.61427a2.04434,2.04434,0,0,0,1.28852-.34055,1.19178,1.19178,0,0,0,.4275-.99037,1.22367,1.22367,0,0,0-.35811-.96939,1.68039,1.68039,0,0,0-1.12317-.31313h-.849Z"/></g></g></svg>